<?xml version="1.0" encoding="UTF-8"?>
<svg version="1.1" xmlns="http://www.w3.org/2000/svg" width="581" height="519">
<path d="M0 0 C191.73 0 383.46 0 581 0 C581 171.27 581 342.54 581 519 C389.27 519 197.54 519 0 519 C0 347.73 0 176.46 0 0 Z " fill="#FEFEFE" transform="translate(0,0)"/>
<path d="M0 0 C1.01441162 -0.01393799 2.02882324 -0.02787598 3.07397461 -0.04223633 C9.4955891 -0.0016832 14.75508827 0.92407903 20.6875 3.375 C21.60660156 3.73980469 22.52570313 4.10460937 23.47265625 4.48046875 C35.74666697 10.31220283 41.52219102 19.48198905 46 32.0625 C47.54605478 39.51167304 47.830179 46.7813067 47.6875 54.375 C45.6875 53.375 45.6875 53.375 44.5 50.3125 C40.3981092 40.50798052 31.8932605 35.029598 22.6875 30.375 C18.41473692 28.72260421 14.13793086 27.45034334 9.6875 26.375 C8.74680664 26.1111853 8.74680664 26.1111853 7.78710938 25.84204102 C0.7919833 24.02624709 -6.11874623 24.03074362 -13.3125 24.0625 C-14.6025293 24.06668945 -15.89255859 24.07087891 -17.22167969 24.07519531 C-26.93547291 24.18987712 -35.88540027 25.13871458 -45.3125 27.375 C-46.68938768 27.65973694 -48.0670177 27.94090429 -49.4453125 28.21875 C-71.73363733 32.86794319 -93.49803268 42.04336112 -111.3125 56.375 C-109.78882813 56.43107422 -109.78882813 56.43107422 -108.234375 56.48828125 C-99.59443656 56.87669954 -91.64528304 57.86569602 -83.3125 60.375 C-83.3125 61.035 -83.3125 61.695 -83.3125 62.375 C-82.549375 62.601875 -81.78625 62.82875 -81 63.0625 C-77.57574181 64.73481214 -76.90188149 65.91843682 -75.3125 69.375 C-74.82741717 72.29929259 -74.79008483 75.16500258 -74.8125 78.125 C-74.81531982 78.95902344 -74.81813965 79.79304688 -74.82104492 80.65234375 C-75.02770503 88.77738937 -77.06604832 95.91744459 -79.71044922 103.54443359 C-80.53627669 106.05540455 -81.10153255 108.6114544 -81.6875 111.1875 C-84.13826078 120.23328559 -89.54679529 129.86533994 -97.3125 135.375 C-100.57572189 136.97790225 -103.87242245 138.21515917 -107.3125 139.375 C-106.93349103 146.62838088 -105.41336193 152.74193707 -102.8125 159.5 C-102.16917619 161.18711023 -101.53361872 162.87720444 -100.90625 164.5703125 C-100.62458984 165.30266113 -100.34292969 166.03500977 -100.05273438 166.78955078 C-99.06848727 170.22727402 -98.75602926 173.8267659 -98.3125 177.375 C-109.2025 177.375 -120.0925 177.375 -131.3125 177.375 C-132.405625 173.641875 -133.49875 169.90875 -134.625 166.0625 C-134.96313721 164.90967529 -135.30127441 163.75685059 -135.6496582 162.5690918 C-136.06477661 161.14850464 -136.06477661 161.14850464 -136.48828125 159.69921875 C-136.76583252 158.75135498 -137.04338379 157.80349121 -137.3293457 156.8269043 C-138.69810986 152.02110435 -139.99772287 147.19584946 -141.3125 142.375 C-149.2325 142.375 -157.1525 142.375 -165.3125 142.375 C-168.2825 153.925 -171.2525 165.475 -174.3125 177.375 C-184.5425 177.375 -194.7725 177.375 -205.3125 177.375 C-204.1876906 168.37652482 -204.1876906 168.37652482 -203.34448242 165.43188477 C-203.06365059 164.43397667 -203.06365059 164.43397667 -202.77714539 163.41590881 C-202.5761171 162.72307297 -202.37508881 162.03023712 -202.16796875 161.31640625 C-201.95690994 160.56898666 -201.74585114 159.82156708 -201.52839661 159.05149841 C-200.85774229 156.67856941 -200.17957437 154.30788839 -199.5 151.9375 C-196.68309421 142.07884433 -193.97901806 132.23137972 -191.68388367 122.23686218 C-190.40414659 116.68276797 -188.92993232 111.21377867 -187.3125 105.75 C-186.79066323 103.95471845 -186.26983359 102.15914386 -185.75 100.36328125 C-185.5025 99.50943848 -185.255 98.6555957 -185 97.77587891 C-183.55225017 92.72006504 -182.23131182 87.63080453 -180.88818359 82.54638672 C-179.64597133 77.86096014 -178.38805922 73.17984443 -177.125 68.5 C-176.86267578 67.51717041 -176.60035156 66.53434082 -176.33007812 65.52172852 C-176.08322266 64.60963623 -175.83636719 63.69754395 -175.58203125 62.7578125 C-175.36135986 61.93684082 -175.14068848 61.11586914 -174.91333008 60.27001953 C-174.3125 58.375 -174.3125 58.375 -173.3125 57.375 C-171.55946987 57.30409779 -169.80359048 57.3025958 -168.04931641 57.32836914 C-166.92369293 57.34070084 -165.79806946 57.35303253 -164.63833618 57.36573792 C-162.79482071 57.38772499 -162.79482071 57.38772499 -160.9140625 57.41015625 C-157.64720036 57.41776842 -154.38038887 57.41997236 -151.11351967 57.41983891 C-147.69747034 57.42282134 -144.28325618 57.44312799 -140.86767578 57.50170898 C-123.48990932 58.66221228 -123.48990932 58.66221228 -108.4921875 51.7265625 C-107.06021733 49.97365502 -105.66275262 48.19160151 -104.3125 46.375 C-102.10400391 44.44799805 -102.10400391 44.44799805 -99.90625 42.80078125 C-99.23142578 42.28233643 -98.55660156 41.7638916 -97.86132812 41.22973633 C-97.18521484 40.72079834 -96.50910156 40.21186035 -95.8125 39.6875 C-95.07966797 39.13280029 -94.34683594 38.57810059 -93.59179688 38.0065918 C-88.00601704 33.81664175 -82.31253149 29.95085769 -76.3125 26.375 C-75.04001677 25.58910455 -73.76791046 24.80259862 -72.49609375 24.015625 C-57.93573635 15.11176029 -42.71932258 8.15052498 -26.3125 3.375 C-25.25675781 3.0553125 -24.20101562 2.735625 -23.11328125 2.40625 C-15.40615688 0.39812109 -7.93794597 0.07049258 0 0 Z " fill="#090A0C" transform="translate(331.3125,167.625)"/>
<path d="M0 0 C0.75140259 -0.0065712 1.50280518 -0.0131424 2.27697754 -0.01991272 C4.77864679 -0.03971305 7.28025547 -0.05133067 9.78198242 -0.0612793 C10.63765997 -0.06535482 11.49333752 -0.06943035 12.37494469 -0.07362938 C16.91451147 -0.09453084 21.45404778 -0.10880796 25.99365234 -0.11816406 C30.65939479 -0.12916389 35.32465174 -0.1634765 39.99022388 -0.20333576 C43.59448558 -0.22964819 47.19863498 -0.23786937 50.80298424 -0.24144554 C52.52078167 -0.24628345 54.23857503 -0.25781655 55.95627785 -0.27648354 C66.99765586 -0.38889684 78.20945268 -0.39039345 87.44995117 6.61450195 C91.87286493 11.38659311 92.31637203 16.05344374 92.20776367 22.3449707 C90.6111715 38.32718419 85.85281184 57.74463956 76.82495117 71.17700195 C76.42018555 71.79961914 76.01541992 72.42223633 75.59838867 73.0637207 C70.20170871 80.33819281 60.5762448 84.51491439 51.82495117 86.17700195 C47.87605444 86.44171468 43.94133327 86.41014764 39.98510742 86.37231445 C38.86301376 86.36948456 37.7409201 86.36665466 36.58482361 86.36373901 C33.01892199 86.3525897 29.45327623 86.32749446 25.88745117 86.30200195 C23.4623246 86.29196538 21.03719408 86.28284072 18.61206055 86.2746582 C12.68293754 86.25266754 6.75396264 86.21924223 0.82495117 86.17700195 C0.19024005 88.68174256 -0.44223179 91.18701496 -1.07348633 93.69262695 C-1.25065186 94.39081543 -1.42781738 95.08900391 -1.61035156 95.80834961 C-3.06764035 101.60400388 -4.30513954 107.4233432 -5.46411133 113.28637695 C-6.17504883 116.17700195 -6.17504883 116.17700195 -8.17504883 120.17700195 C-18.40504883 120.17700195 -28.63504883 120.17700195 -39.17504883 120.17700195 C-37.38346884 111.81629534 -35.59940234 103.63219248 -33.30004883 95.42700195 C-33.03957764 94.4836499 -32.77910645 93.54029785 -32.51074219 92.56835938 C-31.32499493 88.27992489 -30.12485297 83.99557962 -28.92114258 79.7121582 C-28.52639039 78.30466807 -28.13185737 76.89711644 -27.73754883 75.48950195 C-27.44303833 74.44076904 -27.44303833 74.44076904 -27.14257812 73.37084961 C-25.8574824 68.7530621 -24.63839775 64.12103866 -23.44848633 59.4777832 C-23.14483154 58.29337646 -22.84117676 57.10896973 -22.52832031 55.88867188 C-21.93519358 53.56565806 -21.3459142 51.24165712 -20.76123047 48.91650391 C-19.11122328 42.44642339 -17.20231287 36.14247419 -15.04296875 29.82495117 C-14.00001084 26.64297607 -13.25275054 23.46256546 -12.61254883 20.17700195 C-8.51183276 0.03195415 -8.51183276 0.03195415 0 0 Z " fill="#090A0C" transform="translate(282.175048828125,224.822998046875)"/>
<path d="M0 0 C10.29576572 9.60499549 16.87425029 20.10875402 17.54589844 34.42529297 C18.63080333 66.68447109 5.24803455 95.23663094 -14.5546875 120.28125 C-15.600544 121.71570456 -16.64300691 123.15265006 -17.6796875 124.59375 C-20.59434529 128.46596108 -23.83917165 132.02418667 -27.11328125 135.59375 C-29.0317884 137.70564267 -30.90070298 139.84223173 -32.76171875 142.00390625 C-36.91999386 146.76563087 -41.33369449 151.25178855 -45.8046875 155.71875 C-46.64298096 156.55696289 -47.48127441 157.39517578 -48.3449707 158.25878906 C-54.1546013 164.01507909 -60.10111712 169.25811017 -66.5546875 174.28125 C-67.91802312 175.45821202 -69.27265024 176.64535809 -70.6171875 177.84375 C-75.12120669 181.8327566 -79.83231099 185.5556046 -84.5546875 189.28125 C-85.2146875 188.95125 -85.8746875 188.62125 -86.5546875 188.28125 C-85.81025391 187.6625 -85.81025391 187.6625 -85.05078125 187.03125 C-80.054175 182.78366062 -75.76676747 178.2940422 -71.5546875 173.28125 C-70.70777344 172.31058594 -69.86085938 171.33992187 -68.98828125 170.33984375 C-55.79805757 155.16109745 -45.2137832 138.37064881 -36.51611328 120.26025391 C-35.60397766 118.38270912 -34.66063266 116.52471376 -33.70703125 114.66796875 C-21.9588728 91.0425512 -15.51886477 60.41777514 -21.9921875 34.40625 C-26.24209535 22.59597978 -33.13298076 13.29159611 -43.5546875 6.28125 C-44.18761719 5.80300781 -44.82054687 5.32476562 -45.47265625 4.83203125 C-55.33426256 -2.1699195 -68.8835666 -3.56106378 -80.5546875 -5.71875 C-59.0763499 -20.03764173 -19.27916645 -16.11072405 0 0 Z " fill="#F06821" transform="translate(418.5546875,158.71875)"/>
<path d="M0 0 C3.83399181 3.5472759 6.54639771 7.15540565 9.0625 11.75 C9.40756592 12.37414795 9.75263184 12.9982959 10.1081543 13.64135742 C11.08281723 15.42174787 12.04191438 17.21063421 13 19 C13.42796875 19.76441406 13.8559375 20.52882812 14.296875 21.31640625 C23.70732119 39.81155241 21.16075733 63.75331294 15.23510742 82.73754883 C12.6343617 90.56377301 8.93241995 97.77185606 5 105 C4.4328125 106.06089844 3.865625 107.12179687 3.28125 108.21484375 C-3.99633225 121.27673076 -13.67423093 132.2922666 -24 143 C-24.53560547 143.55751953 -25.07121094 144.11503906 -25.62304688 144.68945312 C-32.68375355 152.00202805 -39.92948476 158.79271656 -48 165 C-48.61278809 165.47324707 -49.22557617 165.94649414 -49.85693359 166.43408203 C-58.00250056 172.70495462 -66.22235286 178.63653862 -75 184 C-76.27062151 184.79774527 -77.54006881 185.59736259 -78.80859375 186.3984375 C-91.23634889 194.24004208 -103.76755522 201.51944525 -116.96191406 207.99267578 C-118.91697986 208.95896728 -120.86223528 209.94222817 -122.8046875 210.93359375 C-138.55441932 218.95417807 -154.70600765 226.15979018 -171 233 C-172.63582031 233.69416016 -172.63582031 233.69416016 -174.3046875 234.40234375 C-179.1627607 236.45128661 -183.98049514 238.37604255 -189 240 C-186.53632951 237.27265909 -183.83467268 235.56746673 -180.6875 233.6875 C-161.64869117 222.17294418 -143.0071966 209.99792719 -124.77783203 197.2421875 C-123.52247922 196.36506101 -122.26548328 195.49028391 -121.00732422 194.6171875 C-111.60931692 188.09460855 -102.43431391 181.38329683 -93.51660156 174.21679688 C-92.13901511 173.11153434 -90.75352768 172.01613758 -89.3671875 170.921875 C-82.44064833 165.44300479 -75.71058122 159.73954104 -69 154 C-67.93652344 153.09121094 -67.93652344 153.09121094 -66.8515625 152.1640625 C-53.47896493 140.59704773 -40.12844866 128.57592976 -29.1328125 114.68359375 C-27.74616726 112.93885881 -26.32547674 111.22046854 -24.8671875 109.53515625 C-4.98764201 86.41360602 9.81066447 56.71481455 8.29150391 25.71289062 C7.51436808 18.48045063 4.73708818 11.68841482 2 5 C1.60554687 4.00871094 1.21109375 3.01742187 0.8046875 1.99609375 C0.53914062 1.33738281 0.27359375 0.67867187 0 0 Z " fill="#0A0B0D" transform="translate(449,167)"/>
<path d="M0 0 C1.01441162 -0.01393799 2.02882324 -0.02787598 3.07397461 -0.04223633 C9.4955891 -0.0016832 14.75508827 0.92407903 20.6875 3.375 C21.60660156 3.73980469 22.52570313 4.10460937 23.47265625 4.48046875 C35.74666697 10.31220283 41.52219102 19.48198905 46 32.0625 C47.54605478 39.51167304 47.830179 46.7813067 47.6875 54.375 C45.6875 53.375 45.6875 53.375 44.5 50.3125 C40.3981092 40.50798052 31.8932605 35.029598 22.6875 30.375 C18.41473692 28.72260421 14.13793086 27.45034334 9.6875 26.375 C9.06037109 26.19912354 8.43324219 26.02324707 7.78710938 25.84204102 C0.7919833 24.02624709 -6.11874623 24.03074362 -13.3125 24.0625 C-14.6025293 24.06668945 -15.89255859 24.07087891 -17.22167969 24.07519531 C-26.93547291 24.18987712 -35.88540027 25.13871458 -45.3125 27.375 C-46.68938768 27.65973694 -48.0670177 27.94090429 -49.4453125 28.21875 C-71.90704683 32.90411524 -93.21302054 42.21018999 -111.3125 56.375 C-106.0325 56.705 -100.7525 57.035 -95.3125 57.375 C-95.3125 57.705 -95.3125 58.035 -95.3125 58.375 C-101.5825 58.375 -107.8525 58.375 -114.3125 58.375 C-114.3125 55.375 -114.3125 55.375 -112.72265625 53.5703125 C-101.35442434 43.54508302 -89.34443892 34.14168575 -76.3125 26.375 C-75.04001677 25.58910455 -73.76791046 24.80259862 -72.49609375 24.015625 C-57.93573635 15.11176029 -42.71932258 8.15052498 -26.3125 3.375 C-24.72888672 2.89546875 -24.72888672 2.89546875 -23.11328125 2.40625 C-15.40615688 0.39812109 -7.93794597 0.07049258 0 0 Z " fill="#0B0C0E" transform="translate(331.3125,167.625)"/>
<path d="M0 0 C5.4809035 -0.09893328 10.96128645 -0.17149865 16.44287109 -0.21972656 C18.30722101 -0.23983261 20.17150794 -0.2671218 22.03564453 -0.30175781 C24.71662948 -0.35032121 27.39678023 -0.37297838 30.078125 -0.390625 C30.91055725 -0.41127014 31.7429895 -0.43191528 32.60064697 -0.45318604 C36.40713463 -0.45465948 38.37429055 -0.43792494 41.55761719 1.79003906 C43.44500365 4.6818167 43.16300846 6.76868906 42.609375 10.1015625 C42.40828125 11.05804688 42.2071875 12.01453125 42 13 C41.73703125 14.28648437 41.4740625 15.57296875 41.203125 16.8984375 C38.18530401 30.68822516 38.18530401 30.68822516 33 36 C28.61277283 38.37946175 24.28309825 38.25940841 19.41796875 38.1953125 C18.60378983 38.1924826 17.7896109 38.18965271 16.95075989 38.18673706 C14.362854 38.17558584 11.77530042 38.15049083 9.1875 38.125 C7.42773939 38.11496365 5.66797333 38.10583894 3.90820312 38.09765625 C-0.39466598 38.0756631 -4.69727336 38.04116836 -9 38 C-8.49944256 32.4186778 -7.68107318 27.18856062 -6.15234375 21.77734375 C-5.97619034 21.14639297 -5.80003693 20.5154422 -5.61854553 19.8653717 C-5.06475012 17.88750021 -4.50134429 15.91252731 -3.9375 13.9375 C-3.55599539 12.58156159 -3.17513093 11.22544289 -2.79492188 9.86914062 C-1.86954326 6.57760403 -0.93775248 3.28802849 0 0 Z " fill="#F7F7F8" transform="translate(299,249)"/>
<path d="M0 0 C5.17778402 -0.07431132 10.35525569 -0.12867808 15.53344727 -0.16479492 C17.29391896 -0.17985553 19.0543533 -0.20030826 20.81469727 -0.22631836 C23.34921503 -0.26282229 25.88323552 -0.27975354 28.41796875 -0.29296875 C29.20149216 -0.30845261 29.98501556 -0.32393646 30.7922821 -0.33988953 C35.37409856 -0.34129177 38.37443648 0.11524731 42 3 C44.26895982 8.99563125 41.20457683 16.48919819 39.375 22.3125 C39.13998779 23.08924072 38.90497559 23.86598145 38.6628418 24.66625977 C38.41058838 25.41190186 38.15833496 26.15754395 37.8984375 26.92578125 C37.67849121 27.59005127 37.45854492 28.25432129 37.23193359 28.9387207 C35.36864516 32.05638701 33.16312305 34.26852843 30 36 C26.94004225 36.64562233 23.99880337 36.58609374 20.8828125 36.48828125 C20.02565643 36.48120651 19.16850037 36.47413177 18.28536987 36.46684265 C15.56433529 36.43899213 12.84540593 36.37627456 10.125 36.3125 C8.27346735 36.2874049 6.42190224 36.26459385 4.5703125 36.24414062 C0.04607154 36.18919651 -4.47660809 36.10299162 -9 36 C-8.05176898 26.49236949 -8.05176898 26.49236949 -6.9140625 22.5 C-6.70523438 21.7575 -6.49640625 21.015 -6.28125 20.25 C-6.0646875 19.5075 -5.848125 18.765 -5.625 18 C-5.41617188 17.2575 -5.20734375 16.515 -4.9921875 15.75 C-3.48227313 10.44688612 -1.78089808 5.21780009 0 0 Z " fill="#F8F8F8" transform="translate(182,249)"/>
<path d="M0 0 C0.495 1.98 0.495 1.98 1 4 C0.34 4 -0.32 4 -1 4 C-0.505 9.445 -0.505 9.445 0 15 C0.99 15 1.98 15 3 15 C3.185625 14.0409375 3.185625 14.0409375 3.375 13.0625 C3.58125 12.381875 3.7875 11.70125 4 11 C4.66 10.67 5.32 10.34 6 10 C6 10.99 6 11.98 6 13 C6.66 13 7.32 13 8 13 C6.42584195 16.79351705 4.04288749 19.21537354 1.16015625 22.10546875 C0.67856552 22.58897293 0.19697479 23.07247711 -0.29920959 23.57063293 C-1.32144512 24.59422728 -2.34620205 25.61530894 -3.37329102 26.6340332 C-4.90804421 28.15824649 -6.43204279 29.69260468 -7.95507812 31.22851562 C-13.59472231 36.87547979 -19.36784684 42.12911878 -25.62109375 47.09863281 C-27.82733843 48.86199833 -29.95425853 50.68383568 -32.0625 52.5625 C-36.56651919 56.5515066 -41.27762349 60.2743546 -46 64 C-46.66 63.67 -47.32 63.34 -48 63 C-47.50371094 62.5875 -47.00742187 62.175 -46.49609375 61.75 C-41.4994875 57.50241062 -37.21207997 53.0127922 -33 48 C-31.72962891 46.54400391 -31.72962891 46.54400391 -30.43359375 45.05859375 C-18.46307479 31.28343156 -8.63598686 16.06791786 0 0 Z " fill="#EC6B24" transform="translate(380,284)"/>
<path d="M0 0 C0.66 0.33 1.32 0.66 2 1 C1.7215625 2.0828125 1.7215625 2.0828125 1.4375 3.1875 C0.97756973 6.14419459 1.34485243 8.11249776 2 11 C-8.63227067 15.74956309 -19.27580613 20.46086279 -30 25 C-31.09570312 25.46535156 -32.19140625 25.93070312 -33.3203125 26.41015625 C-38.17354421 28.45519123 -42.98615206 30.37787272 -48 32 C-45.53632951 29.27265909 -42.83467268 27.56746673 -39.6875 25.6875 C-33.34450365 21.85109306 -27.07052786 17.91087611 -20.8125 13.9375 C-19.89879639 13.3602417 -18.98509277 12.7829834 -18.04370117 12.18823242 C-11.90868259 8.28915111 -5.9206752 4.21717146 0 0 Z " fill="#111213" transform="translate(308,375)"/>
<path d="M0 0 C0.66 0.33 1.32 0.66 2 1 C0.12050295 4.57104439 -1.17053157 6.54744301 -5 8 C-5 8.66 -5 9.32 -5 10 C-5.66 10 -6.32 10 -7 10 C-7.33 11.65 -7.66 13.3 -8 15 C-8.66 15 -9.32 15 -10 15 C-10 15.66 -10 16.32 -10 17 C-8.68 17.66 -7.36 18.32 -6 19 C-11.28 22.96 -16.56 26.92 -22 31 C-23.32 30.34 -24.64 29.68 -26 29 C-26 28.34 -26 27.68 -26 27 C-25.34 27 -24.68 27 -24 27 C-24 26.01 -24 25.02 -24 24 C-24.55429687 24.30035156 -25.10859375 24.60070312 -25.6796875 24.91015625 C-26.40414063 25.29042969 -27.12859375 25.67070312 -27.875 26.0625 C-28.95394531 26.63677734 -28.95394531 26.63677734 -30.0546875 27.22265625 C-30.69664062 27.47917969 -31.33859375 27.73570312 -32 28 C-32.66 27.67 -33.32 27.34 -34 27 C-33.65066406 26.44570313 -33.30132812 25.89140625 -32.94140625 25.3203125 C-32.48636719 24.59585937 -32.03132813 23.87140625 -31.5625 23.125 C-31.11003906 22.40570313 -30.65757812 21.68640625 -30.19140625 20.9453125 C-28.97538499 19.0222453 -28.97538499 19.0222453 -28 17 C-27.01 17 -26.02 17 -25 17 C-25 16.34 -25 15.68 -25 15 C-23.35 15 -21.7 15 -20 15 C-23.875 19.875 -23.875 19.875 -25 21 C-16.32022778 14.33494863 -7.97358756 7.50168135 0 0 Z " fill="#F5F1EE" transform="translate(361,324)"/>
<path d="M0 0 C0.495 1.98 0.495 1.98 1 4 C0.34 4 -0.32 4 -1 4 C-0.505 6.475 -0.505 6.475 0 9 C-0.763125 9.598125 -1.52625 10.19625 -2.3125 10.8125 C-5.36428674 13.20662875 -5.36428674 13.20662875 -8 16 C-8 17.32 -8 18.64 -8 20 C-6.68 20.33 -5.36 20.66 -4 21 C-11.65934704 28.29037517 -19.49893419 35.11955291 -27.875 41.57421875 C-31.35604552 44.27638033 -34.69435416 47.08788342 -38 50 C-38.66 49.67 -39.32 49.34 -40 49 C-39.50371094 48.5875 -39.00742187 48.175 -38.49609375 47.75 C-33.4994875 43.50241062 -29.21207997 39.0127922 -25 34 C-23.72962891 32.54400391 -23.72962891 32.54400391 -22.43359375 31.05859375 C-13.97568325 21.32328715 -6.70368414 11.02864165 0 0 Z " fill="#E7773D" transform="translate(372,298)"/>
<path d="M0 0 C-0.99 0.33 -1.98 0.66 -3 1 C-1.35 1.66 0.3 2.32 2 3 C1.67 3.99 1.34 4.98 1 6 C1.99 6 2.98 6 4 6 C4.66 6 5.32 6 6 6 C5.34 7.65 4.68 9.3 4 11 C-0.22714664 10.53031704 -4.15600195 9.72550088 -8.25 8.5625 C-13.77919923 6.99806638 -19.33345805 5.93163649 -25 5 C-18.66358128 0.77572085 -7.45640327 -2.79615123 0 0 Z " fill="#EA6F2E" transform="translate(363,148)"/>
<path d="M0 0 C0.66 0.33 1.32 0.66 2 1 C1.67 1.99 1.34 2.98 1 4 C1.66 4.66 2.32 5.32 3 6 C1.40671875 6.87011719 1.40671875 6.87011719 -0.21875 7.7578125 C-7.50970929 11.77628191 -14.51706699 15.73261693 -21 21 C-15.72 21.33 -10.44 21.66 -5 22 C-5 22.33 -5 22.66 -5 23 C-11.27 23 -17.54 23 -24 23 C-24 20 -24 20 -22.3046875 18.125 C-15.07924549 11.80564236 -7.60111625 5.85965014 0 0 Z " fill="#1D1D1D" transform="translate(241,203)"/>
<path d="M0 0 C0.8971875 0.5259375 0.8971875 0.5259375 1.8125 1.0625 C4.10813214 2.33304698 4.10813214 2.33304698 7 1 C7.33 1.99 7.66 2.98 8 4 C6.28566742 5.8494376 4.55587991 7.67829108 2.8125 9.5 C2.08836914 10.28697266 2.08836914 10.28697266 1.34960938 11.08984375 C-1.03318416 13.5525968 -2.39747337 14.92766392 -5.86328125 15.34375 C-6.56839844 15.2303125 -7.27351563 15.116875 -8 15 C-8.75 13.25 -8.75 13.25 -9 11 C-7.00120788 8.53994816 -4.78519873 6.83889905 -2.25 4.9375 C-1.5075 4.298125 -0.765 3.65875 0 3 C0 2.01 0 1.02 0 0 Z " fill="#EC6C2B" transform="translate(372,303)"/>
<path d="M0 0 C0.66 0.33 1.32 0.66 2 1 C1.360625 1.391875 0.72125 1.78375 0.0625 2.1875 C-2.24469832 3.81981688 -2.24469832 3.81981688 -2.35546875 6.453125 C-3 9 -3 9 -4.8984375 10.44140625 C-6.12433594 10.99634766 -6.12433594 10.99634766 -7.375 11.5625 C-8.27476562 11.97242188 -9.17453125 12.38234375 -10.1015625 12.8046875 C-16.632617 15.49808733 -23.28104865 17.82088064 -30 20 C-27.42964764 17.12049873 -24.48553845 15.35138309 -21.1875 13.375 C-17.44849126 11.12602454 -13.74043713 8.85004665 -10.1015625 6.44140625 C-9.46839111 6.02391113 -8.83521973 5.60641602 -8.18286133 5.17626953 C-6.94935504 4.35929904 -5.71990103 3.5361724 -4.49487305 2.70654297 C-3.03463252 1.74399214 -1.52098308 0.86337533 0 0 Z " fill="#1B1B1B" transform="translate(290,387)"/>
<path d="M0 0 C0.33 0.99 0.66 1.98 1 3 C-0.9375 5.6875 -0.9375 5.6875 -3 8 C-2.01 8.33 -1.02 8.66 0 9 C-7.57215658 15.45650969 -15.181867 21.84079364 -23 28 C-23.66 27.67 -24.32 27.34 -25 27 C-24.50371094 26.5875 -24.00742187 26.175 -23.49609375 25.75 C-18.50402341 21.50626658 -14.18692489 17.0293645 -10 12 C-9.11340468 10.94130287 -8.22667662 9.8827169 -7.33984375 8.82421875 C-4.88529077 5.88935223 -2.44063855 2.94644493 0 0 Z " fill="#E37744" transform="translate(357,320)"/>
<path d="M0 0 C0.33 0 0.66 0 1 0 C1.33001852 17.52765006 -0.81574828 31.58645142 -7 48 C-8.21869627 43.95564916 -7.49236662 41.70001377 -6.125 37.6875 C-4.61846963 33.07440012 -3.44880298 28.82463207 -3 24 C-3.66 24 -4.32 24 -5 24 C-5.33 21.69 -5.66 19.38 -6 17 C-4 17 -2 17 0 17 C0 11.39 0 5.78 0 0 Z " fill="#E5743A" transform="translate(435,191)"/>
<path d="M0 0 C0.33 0 0.66 0 1 0 C1 1.98 1 3.96 1 6 C0.34 6 -0.32 6 -1 6 C-0.95359375 6.58007812 -0.9071875 7.16015625 -0.859375 7.7578125 C-0.60048216 13.36099315 -1.08186154 16.64651282 -5 21 C-7.140625 21.65625 -7.140625 21.65625 -9 22 C-6.66062389 14.33204498 -3.45231194 7.22862726 0 0 Z " fill="#E5793D" transform="translate(390,262)"/>
<path d="M0 0 C0.33 0 0.66 0 1 0 C1.29883729 7.47093223 0.15925507 14.63044989 -1 22 C-1.99 22.33 -2.98 22.66 -4 23 C-4.69419897 25.07883627 -4.69419897 25.07883627 -5 27.5 C-5.375 29.96875 -5.375 29.96875 -6 32 C-7.485 32.495 -7.485 32.495 -9 33 C-7.50711339 27.78620661 -5.90276048 22.68168146 -3.9375 17.625 C-1.78664635 11.86466782 -0.80619037 6.07825105 0 0 Z " fill="#FAE4CD" transform="translate(435,210)"/>
<path d="M0 0 C1.65 0 3.3 0 5 0 C1.125 4.875 1.125 4.875 0 6 C1.32 5.34 2.64 4.68 4 4 C3.34 5.32 2.68 6.64 2 8 C1.34 8 0.68 8 0 8 C0 8.66 0 9.32 0 10 C-4.455 11.485 -4.455 11.485 -9 13 C-7.02 9.37 -5.04 5.74 -3 2 C-2.01 2 -1.02 2 0 2 C0 1.34 0 0.68 0 0 Z " fill="#F6EBDC" transform="translate(336,339)"/>
<path d="M0 0 C0.99 0.66 1.98 1.32 3 2 C2.67 2.33 2.34 2.66 2 3 C2.66 3.33 3.32 3.66 4 4 C3.60196439 6.88575819 3.20990931 7.82189513 0.9375 9.75 C-0.0215625 10.36875 -0.0215625 10.36875 -1 11 C-2.32 10.34 -3.64 9.68 -5 9 C-5 8.34 -5 7.68 -5 7 C-4.34 7 -3.68 7 -3 7 C-2.87625 6.21625 -2.7525 5.4325 -2.625 4.625 C-2 2 -2 2 0 0 Z " fill="#F2F3F3" transform="translate(340,344)"/>
<path d="M0 0 C0.33 1.32 0.66 2.64 1 4 C-1.64 5.98 -4.28 7.96 -7 10 C-1.72 10.33 3.56 10.66 9 11 C9 11.33 9 11.66 9 12 C2.73 12 -3.54 12 -10 12 C-10 9 -10 9 -7.8125 6.73828125 C-6.884375 5.93777344 -5.95625 5.13726562 -5 4.3125 C-4.071875 3.50425781 -3.14375 2.69601563 -2.1875 1.86328125 C-1.1046875 0.94095703 -1.1046875 0.94095703 0 0 Z " fill="#4B4C4D" transform="translate(227,214)"/>
<path d="M0 0 C0.99 0.33 1.98 0.66 3 1 C1.10981419 3.25495851 -0.78680514 5.50392683 -2.6875 7.75 C-3.21794922 8.38421875 -3.74839844 9.0184375 -4.29492188 9.671875 C-7.28925908 13.19894705 -10.24704545 16.24272727 -14 19 C-13.34 17.02 -12.68 15.04 -12 13 C-11.01 13 -10.02 13 -9 13 C-9 12.01 -9 11.02 -9 10 C-7.125 7.8125 -7.125 7.8125 -5 6 C-4.34 6 -3.68 6 -3 6 C-3 4.68 -3 3.36 -3 2 C-2.01 2 -1.02 2 0 2 C0 1.34 0 0.68 0 0 Z " fill="#FBEEDA" transform="translate(355,319)"/>
<path d="M0 0 C0.99 0.33 1.98 0.66 3 1 C2.4409112 4.24271506 1.5867822 5.93057424 -1 8 C-1.66 8 -2.32 8 -3 8 C-3 9.32 -3 10.64 -3 12 C-3.99 12 -4.98 12 -6 12 C-6.33 12.99 -6.66 13.98 -7 15 C-7.66 13.68 -8.32 12.36 -9 11 C-6.84414544 8.76429898 -4.74069078 6.80551808 -2.25 4.9375 C-1.5075 4.298125 -0.765 3.65875 0 3 C0 2.01 0 1.02 0 0 Z " fill="#EF681E" transform="translate(372,303)"/>
<path d="M0 0 C0.99 0.33 1.98 0.66 3 1 C4.81497102 9.1407691 5.25176938 16.86460259 5.125 25.1875 C5.11597656 26.33025391 5.10695313 27.47300781 5.09765625 28.65039062 C5.07436393 31.4338231 5.04165999 34.21679229 5 37 C4.67 37 4.34 37 4 37 C3.98541748 36.34104736 3.97083496 35.68209473 3.95581055 35.00317383 C3.61430052 17.27865217 3.61430052 17.27865217 0 0 Z " fill="#E38658" transform="translate(395,188)"/>
<path d="M0 0 C4.09480199 3.74381897 7.7448683 7.8668907 10 13 C9.67 13.99 9.34 14.98 9 16 C8.01 16.33 7.02 16.66 6 17 C5.73445313 16.19175781 5.46890625 15.38351563 5.1953125 14.55078125 C4.84210938 13.48214844 4.48890625 12.41351563 4.125 11.3125 C3.77695312 10.25675781 3.42890625 9.20101562 3.0703125 8.11328125 C2.12668634 5.36850006 1.10508711 2.68307185 0 0 Z " fill="#434343" transform="translate(449,167)"/>
<path d="M0 0 C0.33 0.66 0.66 1.32 1 2 C1.66 2.33 2.32 2.66 3 3 C-2 7 -7 11 -12 15 C-12.66 14.67 -13.32 14.34 -14 14 C-13.49210937 13.57589844 -12.98421875 13.15179688 -12.4609375 12.71484375 C-7.83373646 8.77219118 -3.84408054 4.70899866 0 0 Z " fill="#D58E66" transform="translate(346,333)"/>
<path d="M0 0 C0.66 0 1.32 0 2 0 C1.06916801 4.18874395 0.08035356 7.91964644 -3 11 C-4.32 11 -5.64 11 -7 11 C-5.66666667 8.33333333 -4.33333333 5.66666667 -3 3 C-2.34 3 -1.68 3 -1 3 C-0.67 2.01 -0.34 1.02 0 0 Z " fill="#EC6A23" transform="translate(361,317)"/>
<path d="M0 0 C0.33 0 0.66 0 1 0 C1 5.28 1 10.56 1 16 C0.34 16 -0.32 16 -1 16 C-1 17.32 -1 18.64 -1 20 C-1.66 20 -2.32 20 -3 20 C-2.22602467 13.29221378 -1.14231412 6.65425699 0 0 Z " fill="#E67C47" transform="translate(398,229)"/>
<path d="M0 0 C0.66 0.33 1.32 0.66 2 1 C0.12050295 4.57104439 -1.17053157 6.54744301 -5 8 C-5 8.66 -5 9.32 -5 10 C-6.96466413 11.06775224 -8.96855359 12.06553465 -11 13 C-11.66 12.67 -12.32 12.34 -13 12 C-8.71 8.04 -4.42 4.08 0 0 Z " fill="#FAE9D7" transform="translate(361,324)"/>
<path d="M0 0 C4.29424616 3.78976452 6.60520234 9.56222345 7.25390625 15.2109375 C7.25 17.125 7.25 17.125 7 20 C4.86232956 16.79349434 4.32037005 14.43680401 3.5625 10.7421875 C3.376875 10.16726562 3.19125 9.59234375 3 9 C2.34 8.67 1.68 8.34 1 8 C0.40644386 5.35139573 0.25790731 2.70802678 0 0 Z " fill="#E38E5E" transform="translate(428,171)"/>
<path d="M0 0 C0.2475 0.639375 0.495 1.27875 0.75 1.9375 C1.81562433 4.18741541 1.81562433 4.18741541 4.125 4.75 C4.74375 4.8325 5.3625 4.915 6 5 C4.37660195 6.70884005 2.70680947 8.37446717 1 10 C0.34 10 -0.32 10 -1 10 C-0.42415568 7.61435923 0.22227595 5.33317216 1 3 C0.01 3.99 -0.98 4.98 -2 6 C-2.66 5.67 -3.32 5.34 -4 5 C-2.68 3.35 -1.36 1.7 0 0 Z " fill="#E7763D" transform="translate(362,314)"/>
<path d="M0 0 C0.33 0 0.66 0 1 0 C0.47458553 7.7498635 -1.55591476 14.6450086 -4 22 C-4.33 22 -4.66 22 -5 22 C-4.30011914 14.72123905 -3.29638635 6.5927727 0 0 Z " fill="#FCE9D5" transform="translate(396,236)"/>
<path d="M0 0 C5.73842251 -0.20413361 10.60539047 -0.27141454 16 2 C15.67 2.99 15.34 3.98 15 5 C14.33613281 4.79503906 13.67226563 4.59007812 12.98828125 4.37890625 C12.10527344 4.10949219 11.22226562 3.84007812 10.3125 3.5625 C9.44238281 3.29566406 8.57226562 3.02882812 7.67578125 2.75390625 C5.12974079 2.03655471 2.5996577 1.482459 0 1 C0 0.67 0 0.34 0 0 Z " fill="#F9E2D0" transform="translate(392,147)"/>
<path d="M0 0 C0.33 1.32 0.66 2.64 1 4 C0.34 4 -0.32 4 -1 4 C-1 6.97 -1 9.94 -1 13 C-2.65 12.67 -4.3 12.34 -6 12 C-4.02 8.04 -2.04 4.08 0 0 Z " fill="#E27B45" transform="translate(380,284)"/>
<path d="M0 0 C1.65 1.65 3.3 3.3 5 5 C3.54263913 5.19491452 2.08405407 5.38069358 0.625 5.5625 C-0.18710937 5.66691406 -0.99921875 5.77132812 -1.8359375 5.87890625 C-4 6 -4 6 -6 5 C-6 4.01 -6 3.02 -6 2 C-3.03 2.495 -3.03 2.495 0 3 C0 2.01 0 1.02 0 0 Z " fill="#E96E30" transform="translate(418,159)"/>
<path d="M0 0 C3.31680229 4.97520343 3.28398016 9.13107664 3 15 C2.34 15.66 1.68 16.32 1 17 C0.67 11.39 0.34 5.78 0 0 Z " fill="#FCE7D2" transform="translate(396,194)"/>
<path d="M0 0 C0.86625 0.556875 0.86625 0.556875 1.75 1.125 C1.42 2.115 1.09 3.105 0.75 4.125 C1.74 4.125 2.73 4.125 3.75 4.125 C4.08 5.115 4.41 6.105 4.75 7.125 C0.64041233 5.67455729 -2.68258745 3.61389248 -6.25 1.125 C-2.80384615 -1.09038462 -2.80384615 -1.09038462 0 0 Z " fill="#E47638" transform="translate(373.25,158.875)"/>
<path d="M0 0 C0.99 0.33 1.98 0.66 3 1 C3 1.99 3 2.98 3 4 C3.66 5.65 4.32 7.3 5 9 C2.03 7.02 -0.94 5.04 -4 3 C-2.68 2.01 -1.36 1.02 0 0 Z " fill="#FAECDD" transform="translate(416,152)"/>
<path d="M0 0 C4.07763771 2.86536704 6.02677065 5.43041625 8 10 C6.68 9.67 5.36 9.34 4 9 C4 8.34 4 7.68 4 7 C3.34 7 2.68 7 2 7 C1.34 4.69 0.68 2.38 0 0 Z " fill="#F7E7D0" transform="translate(382,170)"/>
<path d="M0 0 C1.875 0.3125 1.875 0.3125 4 1 C6 4 6 4 6 7 C6.66 7 7.32 7 8 7 C8.33 8.98 8.66 10.96 9 13 C5.63834831 8.91799438 2.37341938 4.74683876 0 0 Z " fill="#FDEDD9" transform="translate(423,163)"/>
<path d="M0 0 C-2.60984357 2.14380007 -4.61226489 3.58936544 -8 4 C-10.75 3.5625 -10.75 3.5625 -13 3 C-8.8341563 0.22277086 -4.9360889 -1.89849573 0 0 Z " fill="#DB7943" transform="translate(351,150)"/>
<path d="M0 0 C1.32 0.66 2.64 1.32 4 2 C-1.75 7 -1.75 7 -4 7 C-3.43628586 3.73045798 -2.50037734 2.17424117 0 0 Z " fill="#18191B" transform="translate(402,326)"/>
<path d="M0 0 C0.33 0.99 0.66 1.98 1 3 C1.66 3 2.32 3 3 3 C2.34 4.32 1.68 5.64 1 7 C-0.32 7 -1.64 7 -3 7 C-1.125 1.125 -1.125 1.125 0 0 Z " fill="#E9702D" transform="translate(385,294)"/>
<path d="M0 0 C0.66 0.33 1.32 0.66 2 1 C0.02 4.96 -1.96 8.92 -4 13 C-4.33 13 -4.66 13 -5 13 C-4.67 10.69 -4.34 8.38 -4 6 C-3.34 6 -2.68 6 -2 6 C-1.34 4.02 -0.68 2.04 0 0 Z " fill="#FDECDC" transform="translate(381,278)"/>
<path d="M0 0 C0 3 0 3 -1.390625 4.5703125 C-2.31101562 5.33988281 -2.31101562 5.33988281 -3.25 6.125 C-3.85328125 6.64320313 -4.4565625 7.16140625 -5.078125 7.6953125 C-7.07471451 9.05072083 -8.64237402 9.57228909 -11 10 C-7.50640535 6.40365256 -3.88901869 3.16548033 0 0 Z " fill="#262728" transform="translate(372,328)"/>
<path d="M0 0 C-1.65 1.65 -3.3 3.3 -5 5 C-5 4.34 -5 3.68 -5 3 C-5.99 2.67 -6.98 2.34 -8 2 C-7 0 -7 0 -5.125 -0.6875 C-3 -1 -3 -1 0 0 Z " fill="#E57030" transform="translate(408,274)"/>
<path d="M0 0 C2.52940738 3.13164723 4.44920018 6.27808042 6 10 C5.6875 12.375 5.6875 12.375 5 14 C4.731875 13.071875 4.46375 12.14375 4.1875 11.1875 C3.27748605 8.04085375 3.27748605 8.04085375 1.375 6.4375 C0 5 0 5 -0.1875 2.3125 C-0.125625 1.549375 -0.06375 0.78625 0 0 Z " fill="#FBE0C7" transform="translate(390,180)"/>
<path d="M0 0 C1.11375 0.598125 2.2275 1.19625 3.375 1.8125 C4.00148438 2.14894531 4.62796875 2.48539063 5.2734375 2.83203125 C7 4 7 4 9 7 C7.35 6.67 5.7 6.34 4 6 C3.67 5.01 3.34 4.02 3 3 C2.01 2.67 1.02 2.34 0 2 C0 1.34 0 0.68 0 0 Z " fill="#FDEDDB" transform="translate(372,163)"/>
<path d="M0 0 C0.33 0.99 0.66 1.98 1 3 C-0.58133449 6.16266898 -2.38114512 8.63055987 -5 11 C-5.66 10.67 -6.32 10.34 -7 10 C-3.535 5.05 -3.535 5.05 0 0 Z " fill="#E38455" transform="translate(369,303)"/>
<path d="M0 0 C0.33 0.99 0.66 1.98 1 3 C-0.65 4.65 -2.3 6.3 -4 8 C-4.99 7.67 -5.98 7.34 -7 7 C-4.69 4.69 -2.38 2.38 0 0 Z " fill="#FBEADA" transform="translate(386,300)"/>
<path d="M0 0 C0.66 0.33 1.32 0.66 2 1 C-0.23775234 4.3566285 -0.93320048 4.57996014 -4.625 5.6875 C-5.44226563 5.93886719 -6.25953125 6.19023437 -7.1015625 6.44921875 C-7.72804688 6.63097656 -8.35453125 6.81273437 -9 7 C-6.28672425 4.15635664 -3.30410823 2.12931419 0 0 Z " fill="#535353" transform="translate(269,400)"/>
<path d="M0 0 C0.33 0.66 0.66 1.32 1 2 C1.66 2.33 2.32 2.66 3 3 C-1.625 5.125 -1.625 5.125 -5 4 C-3.36587557 2.29159719 -2.13093906 1.06546953 0 0 Z " fill="#2C2C2C" transform="translate(275,397)"/>
<path d="M0 0 C0.66 1.32 1.32 2.64 2 4 C0.35 5.32 -1.3 6.64 -3 8 C-3.66 7.67 -4.32 7.34 -5 7 C-3.35 4.69 -1.7 2.38 0 0 Z " fill="#F7E9D8" transform="translate(403,279)"/>
<path d="M0 0 C0.99 0.33 1.98 0.66 3 1 C1.69593116 3.01920337 0.36176581 5.01924973 -1 7 C-1.33 7 -1.66 7 -2 7 C-2.125 4.625 -2.125 4.625 -2 2 C-1.34 1.34 -0.68 0.68 0 0 Z " fill="#E9743A" transform="translate(400,279)"/>
<path d="M0 0 C0.66 0 1.32 0 2 0 C2.33 1.32 2.66 2.64 3 4 C3.66 4 4.32 4 5 4 C4.34 5.32 3.68 6.64 3 8 C3 7.01 3 6.02 3 5 C2.01 5 1.02 5 0 5 C0 3.35 0 1.7 0 0 Z " fill="#E96F36" transform="translate(411,256)"/>
<path d="M0 0 C0.33 0 0.66 0 1 0 C1.25 6.625 1.25 6.625 -1 10 C-1.66 10 -2.32 10 -3 10 C-2.01 6.7 -1.02 3.4 0 0 Z " fill="#F9E0C8" transform="translate(429,233)"/>
<path d="M0 0 C1.32 0.33 2.64 0.66 4 1 C2.68 2.32 1.36 3.64 0 5 C-0.99 4.67 -1.98 4.34 -3 4 C-2.01 2.68 -1.02 1.36 0 0 Z " fill="#151515" transform="translate(230,212)"/>
<path d="M0 0 C1.5 1.375 1.5 1.375 3 3 C3 3.66 3 4.32 3 5 C2.38125 5.12375 1.7625 5.2475 1.125 5.375 C-1.19120832 5.87197356 -1.19120832 5.87197356 -3 8 C-2.45276317 4.62537285 -1.9451 2.91765 0 0 Z " fill="#E9763B" transform="translate(425,166)"/>
<path d="M0 0 C0.66 0.33 1.32 0.66 2 1 C-1.32307692 4.93846154 -1.32307692 4.93846154 -4.75 5.25 C-5.4925 5.1675 -6.235 5.085 -7 5 C-2.25 1.125 -2.25 1.125 0 0 Z " fill="#D2D2D3" transform="translate(368,354)"/>
<path d="M0 0 C1.32 0.33 2.64 0.66 4 1 C3.67 1.99 3.34 2.98 3 4 C1.35 3.67 -0.3 3.34 -2 3 C-1.34 2.01 -0.68 1.02 0 0 Z " fill="#F76617" transform="translate(402,270)"/>
<path d="M0 0 C0.5534764 2.07553648 1 3.84365964 1 6 C0.01 6.495 0.01 6.495 -1 7 C-1.66 7.99 -2.32 8.98 -3 10 C-2.25 3.375 -2.25 3.375 0 0 Z " fill="#333335" transform="translate(266,261)"/>
<path d="M0 0 C2.52259061 1.97420135 2.9929808 2.96745642 3.6875 6.1875 C3.790625 7.115625 3.89375 8.04375 4 9 C3.01 8.67 2.02 8.34 1 8 C0.67 5.36 0.34 2.72 0 0 Z " fill="#E27A47" transform="translate(428,171)"/>
<path d="M0 0 C-0.33 0.99 -0.66 1.98 -1 3 C-3.31 3 -5.62 3 -8 3 C-5.53387212 -0.1151089 -3.89156016 -0.31553191 0 0 Z " fill="#F0681E" transform="translate(354,150)"/>
<path d="M0 0 C0 0.99 0 1.98 0 3 C-2.97 2.67 -5.94 2.34 -9 2 C-5.23312136 0.11656068 -3.97041037 -0.22057835 0 0 Z " fill="#FEF7E9" transform="translate(394,144)"/>
<path d="M0 0 C2 3 2 3 1.625 5.1875 C1.41875 5.785625 1.2125 6.38375 1 7 C0.34 7 -0.32 7 -1 7 C-1.33 7.99 -1.66 8.98 -2 10 C-1.54177532 6.53058454 -1.10868317 3.32604951 0 0 Z " fill="#2E2F30" transform="translate(133,316)"/>
<path d="M0 0 C0.33 1.32 0.66 2.64 1 4 C-0.32 4.99 -1.64 5.98 -3 7 C-3.66 6.67 -4.32 6.34 -5 6 C-3.35 4.02 -1.7 2.04 0 0 Z " fill="#FBE4D0" transform="translate(397,287)"/>
<path d="M0 0 C0.33 1.32 0.66 2.64 1 4 C1.66 4 2.32 4 3 4 C2.67 4.66 2.34 5.32 2 6 C1.01 6 0.02 6 -1 6 C-1.33 6.99 -1.66 7.98 -2 9 C-1.125 2.25 -1.125 2.25 0 0 Z " fill="#BABBBC" transform="translate(251,271)"/>
<path d="M0 0 C0.66 0 1.32 0 2 0 C1.75 2.375 1.75 2.375 1 5 C-1.0625 6.3125 -1.0625 6.3125 -3 7 C-1.125 2.25 -1.125 2.25 0 0 Z " fill="#202022" transform="translate(444,247)"/>
<path d="M0 0 C0.66 0.33 1.32 0.66 2 1 C2.40729228 3.32156597 2.74438677 5.6568787 3 8 C0.47411298 5.63707344 -0.88820837 4.33537489 -2 1 C-1.34 0.67 -0.68 0.34 0 0 Z " fill="#E5733D" transform="translate(388,172)"/>
<path d="M0 0 C0.66 0.33 1.32 0.66 2 1 C2 2.65 2 4.3 2 6 C0.02 4.68 -1.96 3.36 -4 2 C-2.125 0.9375 -2.125 0.9375 0 0 Z " fill="#E7753D" transform="translate(384,167)"/>
<path d="M0 0 C3.93673644 1.31224548 6.22719294 2.91910327 9 6 C2.35384615 4.52307692 2.35384615 4.52307692 0.5625 1.875 C0.376875 1.25625 0.19125 0.6375 0 0 Z " fill="#E27C4A" transform="translate(407,152)"/>
</svg>
